<svg  viewBox="0 0 131 118" fill="none" xmlns="http://www.w3.org/2000/svg">
<path d="M57.5699 69.5334C57.5194 70.6746 57.4591 71.675 57.3901 72.5281L57.1039 72.2944L56.2879 76.3652C52.8894 93.3204 45.0179 103.234 36.7519 108.836C29.1116 114.014 21.0027 115.596 15.4664 115.496L3.65893 89.2554C16.8886 87.2274 24.4405 81.7479 28.1784 75.0682C32.1543 67.9633 31.4719 60.0941 29.6813 55.0225L29.0925 53.3548L27.3239 53.3548L2.4929 53.3548L2.4929 3.49999L56.3448 3.5C56.8969 16.5042 57.5188 34.6517 57.708 49.6408C57.8087 57.6159 57.7862 64.651 57.5699 69.5334Z" stroke="#87DEE7" stroke-width="5"/>
<path d="M127.577 68.5334C127.526 69.6746 127.466 70.675 127.397 71.5281L127.111 71.2944L126.295 75.3652C122.896 92.3204 115.025 102.234 106.759 107.836C99.1185 113.014 91.0096 114.596 85.4732 114.496L73.6658 88.2554C86.8954 86.2274 94.4473 80.7479 98.1853 74.0682C102.161 66.9633 101.479 59.0941 99.6881 54.0225L99.0993 52.3548L97.3308 52.3548L72.4997 52.3548L72.4997 2.49999L126.352 2.5C126.904 15.5042 127.526 33.6517 127.715 48.6408C127.816 56.6159 127.793 63.651 127.577 68.5334Z" stroke="#87DEE7" stroke-width="5"/>
</svg>
