<svg id="圖層_1" data-name="圖層 1" xmlns="http://www.w3.org/2000/svg" viewBox="0 0 80 80"><defs><style>.cls-1{fill:#010101;}.cls-2{fill:#030303;}.cls-3{fill:#0b0b0b;}</style></defs><path class="cls-1" d="M49.36,9.46C48,9.46,48,9.46,48,8.08S48,6.8,49.3,6.8s1.35,0,1.35,1.38S50.65,9.46,49.36,9.46Z"/><path class="cls-1" d="M16.11,55.91c0-1.26,0-1.26,1.24-1.26,1.43,0,1.43,0,1.43,1.4s0,1.26-1.26,1.26S16.11,57.31,16.11,55.91Z"/><path class="cls-2" d="M5.46,74.56c0,1.35,0,1.35-1.38,1.35s-1.28,0-1.28-1.31,0-1.35,1.39-1.35S5.46,73.25,5.46,74.56Z"/><path class="cls-2" d="M64,74.66c0,1.25,0,1.25-1.29,1.25s-1.38,0-1.38-1.37,0-1.29,1.32-1.29S64,73.25,64,74.66Z"/><path d="M79.77,38.67a25.05,25.05,0,0,0-.61-3.75C74.52,14.75,49.6,6.59,34,20.13c-.47.4-.66.37-1.06-.09-4.74-5.34-10.67-7.48-17.69-6.23a18.58,18.58,0,0,0-2.91,35.7,18.19,18.19,0,0,0,12.35.15c.53-.18.69,0,.85.44.28.83.59,1.66.95,2.46.19.42.1.6-.25.87a14.31,14.31,0,0,0-6,13.48,14.58,14.58,0,0,0,28.42,2.76c.15-.45.32-.59.81-.54a27.92,27.92,0,0,0,29.9-22.08,16.83,16.83,0,0,1,.59-3V38.91C79.8,38.88,79.78,38.78,79.77,38.67ZM24.54,46.22c.09.53-.06.73-.54.89a16.22,16.22,0,0,1-5.35.88,15.94,15.94,0,1,1,12.41-26c.35.41.35.64,0,1.07A27.24,27.24,0,0,0,24.54,46.22Zm10.1,31a12,12,0,1,1,12-11.92A12,12,0,0,1,34.64,77.25Zm22.19-11.1a25.06,25.06,0,0,1-7,.37c-.53,0-.55-.24-.54-.68a14.27,14.27,0,0,0-6.92-13,14.13,14.13,0,0,0-12.76-1.3c-.5.18-.67.14-.89-.37A25.25,25.25,0,1,1,56.83,66.15Z"/><path d="M72.28,5.54a4.06,4.06,0,0,0-.7-.09A3.88,3.88,0,0,1,68,1.88,1.71,1.71,0,0,0,66.67.1H66.2a2.14,2.14,0,0,0-.94,1.49,3.89,3.89,0,0,1-3.72,3.86,4.09,4.09,0,0,0-.61.1,1.23,1.23,0,0,0-1,1.26A1.21,1.21,0,0,0,60.87,8a4,4,0,0,0,.84.13,4,4,0,0,1,3.56,3.7c.06,1,.56,1.59,1.35,1.58s1.23-.54,1.32-1.52a4,4,0,0,1,3-3.66c.44-.12.93-.1,1.38-.22a1.19,1.19,0,0,0,.94-1.26A1.22,1.22,0,0,0,72.28,5.54ZM67.72,7,66.63,8.16l-.35-.4c-1-1.08-1-1.08.12-2.06.11-.1.19-.25.36-.08l1,1C68,6.83,67.83,6.91,67.72,7Z"/><path d="M16.1,64c-2.51-.29-3.74-1.53-4-4a1.33,1.33,0,0,0-2.65,0,4,4,0,0,1-4,4c-.87.09-1.34.55-1.36,1.3a1.34,1.34,0,0,0,1.32,1.36c2.57.32,3.73,1.49,4,4a1.33,1.33,0,0,0,2.65,0c.3-2.62,1.36-3.68,4-4.06a1.34,1.34,0,0,0,1.28-1.31A1.3,1.3,0,0,0,16.1,64Zm-5,2.29c-.11.11-.21.23-.32.36a3.51,3.51,0,0,1-.37-.41c-.24-.38-.91-.55-.83-1s.61-.6.88-.94.37-.34.62,0,.88.65.9,1S11.43,65.93,11.11,66.26Z"/><path d="M34.69,4.15A5.31,5.31,0,1,0,40,9.48,5.3,5.3,0,0,0,34.69,4.15Zm0,8a2.65,2.65,0,1,1,2.69-2.62A2.64,2.64,0,0,1,34.67,12.11Z"/><path d="M74.58,65.28a4,4,0,0,0-4,4,4,4,0,0,0,4,3.92,3.93,3.93,0,0,0,4-3.94A4,4,0,0,0,74.58,65.28Zm-.07,5.3a1.32,1.32,0,0,1-1.25-1.32,1.37,1.37,0,0,1,1.36-1.32,1.33,1.33,0,0,1,1.28,1.39A1.28,1.28,0,0,1,74.51,70.58Z"/><path d="M53.31,20.12c0-1.45,0-1.43,1.48-1.23A22,22,0,0,1,69,26.4a24.37,24.37,0,0,1,5.28,11.76c.09.53.38,1.19.17,1.57s-1,.25-1.52.34c-1,.19-1,.17-1.16-.8C71,34.41,69.23,30,65.56,26.53a18.76,18.76,0,0,0-11.36-5c-.75-.07-1-.25-.89-1A2.54,2.54,0,0,0,53.31,20.12Z"/><path class="cls-3" d="M56,57.32c0,1.34,0,1.34-1.34,1.34s-1.34,0-1.34-1.35S53.3,56,54.64,56,56,56,56,57.32Z"/><path d="M5.42,33a16.78,16.78,0,0,1,2.51-8.86,11.85,11.85,0,0,1,10.29-5.41c.44,0,.59.13.56.58,0,.64.2,1.43-.09,1.9s-1.14.15-1.74.22C12.66,22,9.52,25,8.53,29.65A17.5,17.5,0,0,0,8.11,34c0,.53-.16.71-.64.7-.21,0-.42,0-.62,0C5.41,34.79,5.41,34.79,5.42,33Z"/><path class="cls-1" d="M17.46,34.71c1.32,0,1.32,0,1.32,1.35s0,1.31-1.28,1.31-1.39,0-1.39-1.35S16.11,34.71,17.46,34.71Z"/><path d="M69.2,41.37a4,4,0,0,1-3.92-3.95A1.29,1.29,0,0,0,64,36.07a1.31,1.31,0,0,0-1.36,1.3c-.25,2.49-1.48,3.72-4,4a1.3,1.3,0,0,0-1.29,1.29A1.33,1.33,0,0,0,58.56,44c.33,0,.67,0,1,.12a4,4,0,0,1,3.06,3.74,1.39,1.39,0,0,0,1.31,1.46,1.35,1.35,0,0,0,1.34-1.25c.31-2.62,1.38-3.71,4-4.06a1.33,1.33,0,0,0,1.28-1.31C70.59,41.93,70.11,41.46,69.2,41.37ZM63.94,44a8.54,8.54,0,0,0-1.31-1.31L64,41.46c-.07,0,0,0,0,0,.39.42,1.12.88,1.08,1.27S64.39,43.58,63.94,44Z"/><path d="M53.41,29.41c-2.66-.33-3.74-1.4-4.07-4A1.33,1.33,0,0,0,48,24.1a1.29,1.29,0,0,0-1.27,1.3,4,4,0,0,1-4,4,1.33,1.33,0,0,0,0,2.66c2.46.23,3.74,1.51,4,4A1.3,1.3,0,0,0,48,37.36a1.33,1.33,0,0,0,1.37-1.3c0-.31,0-.63.11-.93a4,4,0,0,1,3.74-3.07c.89-.07,1.44-.55,1.46-1.3A1.34,1.34,0,0,0,53.41,29.41ZM48,32l-1.19-1.28s0,0,0-.05l1.27-1.17a7.93,7.93,0,0,0,1.24,1.22Z"/></svg>